<?xml version="1.0" encoding="iso-8859-1"?>
<!-- Generator: Adobe Illustrator 19.1.0, SVG Export Plug-In . SVG Version: 6.00 Build 0)  -->
<svg version="1.1" id="Capa_1" xmlns="http://www.w3.org/2000/svg" xmlns:xlink="http://www.w3.org/1999/xlink" x="0px" y="0px"
	 viewBox="0 0 380.163 380.163" style="enable-background:new 0 0 380.163 380.163;" xml:space="preserve">
<g>
	<path fill="#333" d="M371.057,327.022c6.07,6.07,9.1,14.04,9.1,22.02c0,7.97-3.03,15.94-9.1,22.01c-6.07,6.07-14.05,9.11-22.02,9.11
		s-15.94-3.04-22.01-9.11l-90.77-90.77c-1.41-1.4-2.2-3.31-2.2-5.3c0-1.99,0.79-3.9,2.2-5.3l3.63-3.63l-8.91-8.91
		c-25.69,19.81-56.62,29.72-87.54,29.72c-36.75,0-73.5-13.98-101.47-41.96c-55.95-55.95-55.95-146.99,0-202.94
		s146.99-55.95,202.94,0c51.51,51.52,55.59,132.79,12.24,189.02l8.9,8.9l3.63-3.63c2.93-2.93,7.68-2.93,10.61,0L371.057,327.022z
		 M360.448,360.453c6.29-6.3,6.29-16.53,0-22.82l-85.46-85.47l-22.82,22.82l85.46,85.47
		C343.918,366.742,354.158,366.742,360.448,360.453z M271.938,143.432c0-34.32-13.37-66.59-37.64-90.86s-56.54-37.64-90.86-37.64
		c-34.33,0-66.6,13.37-90.87,37.64s-37.63,56.54-37.63,90.86s13.36,66.59,37.63,90.86s56.54,37.64,90.87,37.64
		c34.32,0,66.59-13.37,90.86-37.64S271.938,177.753,271.938,143.432z M250.497,255.443l4.95-4.95l-8.1-8.1
		c-0.8,0.85-1.62,1.68-2.44,2.51c-0.83,0.83-1.67,1.64-2.51,2.44L250.497,255.443z"/>
	<path fill="#2E7AAC" d="M360.448,337.633c6.29,6.29,6.29,16.52,0,22.82c-6.29,6.29-16.53,6.29-22.82,0l-85.46-85.47
		l22.82-22.82L360.448,337.633z"/>
	<path fill="#F45858" d="M234.298,52.572c24.27,24.27,37.64,56.54,37.64,90.86s-13.37,66.59-37.64,90.86
		s-56.54,37.64-90.86,37.64c-34.33,0-66.6-13.37-90.87-37.64s-37.63-56.54-37.63-90.86s13.36-66.59,37.63-90.86
		s56.54-37.64,90.87-37.64C177.758,14.932,210.027,28.302,234.298,52.572z M256.117,143.432c0-30.1-11.73-58.39-33.01-79.68
		c-21.28-21.28-49.58-33-79.67-33c-30.1,0-58.4,11.72-79.68,33c-21.28,21.29-33,49.58-33,79.68s11.72,58.39,33,79.68
		c21.28,21.28,49.58,33,79.68,33c30.09,0,58.39-11.72,79.67-33C244.387,201.822,256.117,173.533,256.117,143.432z"/>
	<path fill="#2E7AAC" d="M255.447,250.492l-4.95,4.95l-8.1-8.1c0.84-0.8,1.68-1.61,2.51-2.44c0.82-0.83,1.64-1.66,2.44-2.51
		L255.447,250.492z"/>
	<path fill="#333" d="M223.107,63.752c21.28,21.29,33.01,49.58,33.01,79.68s-11.73,58.39-33.01,79.68c-21.28,21.28-49.58,33-79.67,33
		c-30.1,0-58.4-11.72-79.68-33c-21.28-21.29-33-49.58-33-79.68s11.72-58.39,33-79.68c21.28-21.28,49.58-33,79.68-33
		C173.527,30.753,201.827,42.472,223.107,63.752z M212.508,212.503c38.08-38.09,38.08-100.05,0-138.14
		c-18.45-18.45-42.98-28.61-69.07-28.61s-50.62,10.16-69.07,28.61c-38.09,38.09-38.09,100.05,0,138.14
		c18.45,18.45,42.98,28.61,69.07,28.61S194.057,230.952,212.508,212.503z"/>
</g>
<g>
</g>
<g>
</g>
<g>
</g>
<g>
</g>
<g>
</g>
<g>
</g>
<g>
</g>
<g>
</g>
<g>
</g>
<g>
</g>
<g>
</g>
<g>
</g>
<g>
</g>
<g>
</g>
<g>
</g>
</svg>
